<svg width="48" height="90" viewBox="0 0 48 90" fill="none" xmlns="http://www.w3.org/2000/svg">
<path d="M37.0294 83.25C37.0294 84.8397 35.7285 86.4056 33.3355 87.6021C30.9706 88.7845 27.6707 89.5294 24 89.5294C20.3293 89.5294 17.0294 88.7845 14.6645 87.6021C12.2715 86.4056 10.9706 84.8397 10.9706 83.25C10.9706 81.6603 12.2715 80.0944 14.6645 78.8979C17.0294 77.7155 20.3293 76.9706 24 76.9706C27.6707 76.9706 30.9706 77.7155 33.3355 78.8979C35.7285 80.0944 37.0294 81.6603 37.0294 83.25Z" fill="#418FFA" fill-opacity="0.4" stroke="#5292FF" stroke-width="0.941185"/>
<path d="M24 55.5V82.5" stroke="#5C98FF" stroke-width="4.5"/>
<path d="M8.10844 8.32093C16.8913 -0.773645 31.1088 -0.773645 39.8917 8.32093C48.5721 17.3098 48.7016 31.8234 40.2757 40.9765L40.0754 41.1941L24 57.8407L7.92474 41.1942L7.72432 40.9765C-0.701592 31.8234 -0.572166 17.3098 8.10844 8.32093ZM8.10844 8.32093L7.04178 7.29084L8.10844 8.32093Z" fill="url(#paint0_linear)" stroke="white" stroke-width="3"/>
<path d="M24.3292 24.1109L21.1637 24.1109L21.1637 26.9219L24 26.9219L24 30.0367L21.1637 30.0367L21.1637 33.2403C21.9909 33.3416 23.7425 33.3922 26.4185 33.3922C28.9678 33.3922 32.3655 33.3458 36.6115 33.2529C36.1725 34.3503 35.7674 35.549 35.3959 36.849C28.6512 36.849 23.9325 36.7688 21.2397 36.6084C18.5553 36.448 16.6264 35.4013 15.4531 33.4682C15.0985 34.9876 14.63 36.3172 14.0476 37.4568C13.4229 36.7646 12.5365 35.8107 11.3885 34.5951C12.4859 32.4003 13.0261 29.2433 13.0093 25.1238L16.2508 25.1238C16.2508 26.6011 16.1959 27.9855 16.0862 29.277C16.5082 30.3322 17.0949 31.1806 17.8462 31.8221L17.8462 24.1109L11.4645 24.1109L11.4645 20.996L16.4027 20.996L16.4027 18.6661L12.3255 18.6661L12.3255 15.5513L16.4027 15.5513L16.4027 12.3097L19.8721 12.3097L19.8721 15.5513L23.6201 15.5513L23.6201 18.6661L19.8721 18.6661L19.8721 20.996L24.3292 20.996L24.3292 24.1109ZM32.7875 24.4907C34.1888 25.0985 35.3453 25.5543 36.257 25.8582C36.0206 27.8673 35.7505 29.1757 35.4466 29.7835C34.957 31.2523 33.6654 31.9867 31.572 31.9867L28.5584 31.9867C26.2623 31.9867 25.1143 30.7712 25.1143 28.34L25.1143 20.4642L31.5466 20.4642L31.5466 16.8175L24.6078 16.8175L24.6078 13.7279L34.9907 13.7279L34.9907 23.5537L28.5584 23.5537L28.5584 27.7322C28.5584 28.5088 28.9804 28.8972 29.8246 28.8972L30.9895 28.8972C31.6733 28.8972 32.1207 28.7072 32.3317 28.3274C32.5512 27.9475 32.7031 26.6686 32.7875 24.4907Z" fill="white"/>
<ellipse cx="24" cy="82.5" rx="4.5" ry="3" fill="white" fill-opacity="0.5"/>
<defs>
<linearGradient id="paint0_linear" x1="24" y1="-1.14164e-07" x2="24" y2="81.75" gradientUnits="userSpaceOnUse">
<stop stop-color="#0A498F"/>
<stop offset="1" stop-color="#0796E4"/>
</linearGradient>
</defs>
</svg>
