<svg width="48" height="90" viewBox="0 0 48 90" fill="none" xmlns="http://www.w3.org/2000/svg">
<path d="M37.0294 83.25C37.0294 84.8397 35.7285 86.4056 33.3355 87.6021C30.9706 88.7845 27.6707 89.5294 24 89.5294C20.3293 89.5294 17.0294 88.7845 14.6645 87.6021C12.2715 86.4056 10.9706 84.8397 10.9706 83.25C10.9706 81.6603 12.2715 80.0944 14.6645 78.8979C17.0294 77.7155 20.3293 76.9706 24 76.9706C27.6707 76.9706 30.9706 77.7155 33.3355 78.8979C35.7285 80.0944 37.0294 81.6603 37.0294 83.25Z" fill="#418FFA" fill-opacity="0.4" stroke="#FF9431" stroke-width="0.941185"/>
<path d="M24 55.5V82.5" stroke="#EE9E01" stroke-width="4.5"/>
<path d="M7.74878 7.9736C16.7282 -1.32453 31.2719 -1.32453 40.2513 7.9736C49.1164 17.1536 49.2481 31.968 40.6436 41.3151L40.4392 41.5371L24 58.5604L7.56093 41.5372L7.35646 41.3151C-1.24808 31.968 -1.11642 17.1536 7.74878 7.9736ZM7.74878 7.9736L7.02945 7.27893M7.74878 7.9736L7.02945 7.27893M7.02945 7.27893C-2.20492 16.8412 -2.34106 32.2572 6.62073 41.9924L41.3845 41.9978L41.3793 41.9924C50.341 32.2572 50.2049 16.8412 40.9706 7.27893C31.598 -2.42631 16.4021 -2.42631 7.02945 7.27893Z" fill="url(#paint0_linear)" stroke="white" stroke-width="2"/>
<path d="M35.168 14.7155L35.168 17.4252C34.1213 19.4512 32.72 21.2745 30.9642 22.8953C32.6525 23.6719 34.6109 24.2713 36.8394 24.6933C36.4173 25.6894 35.9868 26.7699 35.5479 27.9348C32.6103 27.1245 30.1791 26.1199 28.2545 24.9212C26.2454 26.1706 23.9071 27.2004 21.2397 28.0108C20.7838 26.9641 20.2689 25.9595 19.6949 24.9972C21.9741 24.4232 23.9662 23.7141 25.6714 22.87C24.9286 22.1271 24.2448 21.3167 23.6201 20.4388C23.0292 21.2323 22.4215 21.9921 21.7968 22.718C21.1215 21.9921 20.3955 21.2745 19.6189 20.5655C21.8981 17.9993 23.6033 15.2474 24.7344 12.3097L27.9506 12.8922C27.6636 13.5169 27.3766 14.1246 27.0896 14.7155L35.168 14.7155ZM14.7313 20.2109C15.1703 20.194 15.7527 20.1687 16.4787 20.1349C16.9683 19.1557 17.4917 18.0752 18.0488 16.8934L20.9104 18.0837C19.3741 20.9707 17.7533 23.8829 16.0482 26.8206C17.2469 26.6686 18.5215 26.4998 19.8721 26.3141C19.7202 27.192 19.6189 28.205 19.5682 29.353C16.9345 29.5218 14.6638 29.8257 12.756 30.2647L11.895 27.403C12.7391 26.5758 13.7605 25.107 14.9592 22.9966C14.0307 23.0641 13.1274 23.1401 12.2495 23.2245L11.3885 20.4388C12.2664 19.409 13.5242 16.7162 15.1618 12.3604L18.2767 13.2974C17.0105 15.948 15.8287 18.2525 14.7313 20.2109ZM21.8474 31.6575C26.372 32.4341 30.5759 33.2107 34.4589 33.9873L33.6739 37.2795C29.3856 36.3678 25.1649 35.5237 21.0117 34.7471L21.8474 31.6575ZM11.4392 32.5945C14.7313 32.1049 17.6689 31.6406 20.252 31.2017C20.1676 32.6198 20.1338 33.7847 20.1507 34.6964C16.943 35.2198 14.2079 35.7009 11.9456 36.1399L11.4392 32.5945ZM24.3545 27.0991C28.2207 27.7744 31.1837 28.3147 33.2434 28.7199L32.509 31.6575C29.622 31.0328 26.6422 30.4335 23.5695 29.8595L24.3545 27.0991ZM25.3169 17.9317C26.0597 19.2317 27.0389 20.3544 28.2545 21.2999C29.7064 20.2025 30.8207 18.97 31.5973 17.6025L25.4941 17.6025C25.4435 17.7207 25.3844 17.8304 25.3169 17.9317Z" fill="white"/>
<ellipse cx="24" cy="82.5" rx="4.5" ry="3" fill="white" fill-opacity="0.5"/>
<defs>
<linearGradient id="paint0_linear" x1="24" y1="-1.14164e-07" x2="24" y2="81.75" gradientUnits="userSpaceOnUse">
<stop stop-color="#EB7F00"/>
<stop offset="1" stop-color="#F2DA00"/>
</linearGradient>
</defs>
</svg>
